# xmcd
#
# Track frame offsets:
#	150
#	11566
#	23215
#	34761
#	47801
#	61873
#	71206
#	80121
#	91357
#	102041
#	109794
#	122265
#	134824
#	147170
#
# Disc length: 2090 seconds
#
# Revision: 1
# Processed by: cddbd v1.5.2PL0 Copyright (c) Steve Scherf et al.
# Submitted via: audiograbber 1.83.01
#
DISCID=c008280e
DTITLE=George Jones - Best Of George Jones
DYEAR=2006
DGENRE=Country
TTITLE0=Tender Years
TTITLE1=She Thinks I Still Care
TTITLE2=White Lightning
TTITLE3=Things Have Gone to Pieces
TTITLE4=Open Pit Mine
TTITLE5=World's Worst Loser
TTITLE6=Jonesy
TTITLE7=A House Without Love
TTITLE8=Don't You Ever Get Tired 
TTITLE9=Yes, I Know Why
TTITLE10=Lifetime to Regret
TTITLE11=Brothers of a Bottle
TTITLE12=Blue Side of Lonesome
TTITLE13=Back in My Baby's Arms Again
EXTD=
EXTT0=
EXTT1=
EXTT2=
EXTT3=
EXTT4=
EXTT5=
EXTT6=
EXTT7=
EXTT8=
EXTT9=
EXTT10=
EXTT11=
EXTT12=
EXTT13=
PLAYORDER=
